<svg width="1122" height="1587" viewBox="0 0 1122 1587" xmlns="http://www.w3.org/2000/svg">
<polyline points="119.47,462.35 1002.53,462.35 1002.53,1124.65 119.47,1124.65 119.47,462.35" fill="none" stroke="#0077CC" stroke-width="0.2mm"/>
<polyline points="-101.30,793.50 1112.92,793.50" fill="none" stroke="#000000" stroke-width="0.2mm"/>
<polygon points="715.54,771.42 892.15,815.58 870.07,1014.27 737.61,992.19 715.54,771.42" fill="none" stroke="#808080" stroke-width="0.2mm"/>
<polygon points="450.62,793.50 671.38,793.50 693.46,859.73 627.23,1014.27 494.77,1036.34 428.54,859.73 450.62,793.50" fill="none" stroke="#ff0000" stroke-width="0.2mm"/>
<line x1="561.00" y1="881.81" x2="568.56" y2="874.25" stroke="#000000" stroke-width="0.2mm"/>
<text x="568.56" y="874.25" fill="#000000" font-size="11" font-family="Times New Roman, serif" text-anchor="start">:27</text>
<line x1="450.62" y1="462.35" x2="458.18" y2="454.79" stroke="#000000" stroke-width="0.2mm"/>
<text x="458.18" y="454.79" fill="#000000" font-size="11" font-family="Times New Roman, serif" text-anchor="start">69:18:0141401</text>
<line x1="516.85" y1="749.35" x2="524.41" y2="741.79" stroke="#000000" stroke-width="0.2mm"/>
<text x="524.41" y="741.79" fill="#000000" font-size="11" font-family="Times New Roman, serif" text-anchor="start">Охранная зона</text>
<text x="76" y="38" fill="#000" font-size="11" font-family="Times New Roman, serif" text-anchor="start">Схема расположения земельных участков — Масштаб 1:3424</text>
</svg>